<?xml version="1.0" encoding="UTF-8"?>
<svg width="154px" height="154px" viewBox="0 0 154 154" version="1.1" xmlns="http://www.w3.org/2000/svg" xmlns:xlink="http://www.w3.org/1999/xlink">
    <!-- Generator: Sketch 42 (36781) - http://www.bohemiancoding.com/sketch -->
    <title>cup_button</title>
    <desc>Created with Sketch.</desc>
    <defs></defs>
    <g id="Page-1" stroke="none" stroke-width="1" fill="none" fill-rule="evenodd">
        <g id="cup_button" transform="translate(3.000000, 3.000000)">
            <g id="Page-1">
                <g id="Group-2">
                    <circle id="Oval" stroke="#000000" stroke-width="5" cx="74" cy="74" r="74"></circle>
                    <g id="Group" transform="translate(43.000000, 32.000000)">
                        <g transform="translate(0.000000, 0.000000)">
                            <polygon id="Path-2" fill="#FFFFFF" points="7.61493614 17.007678 13.6452623 81.2669256 47.7582072 80.6000466 55.0974275 15.2574537 59.2185796 14.9058105 59.3908492 8.88436424 54.401245 8.44303423 54.401245 2.97746843 8.66720185 2.41714803 8.40968535 7.44493578 2.95832735 7.63318922 2.71324268 14.870291"></polygon>
                            <g id="Shape" fill="#000000" fill-rule="nonzero">
                                <path d="M48.612,83.584 L12.847,83.584 C11.815,83.584 10.952,82.799 10.856,81.771 L4.676,16.104 C4.623,15.543 4.809,14.986 5.188,14.57 C5.567,14.153 6.104,13.916 6.667,13.916 L55.166,13.916 C55.731,13.916 56.27,14.155 56.648,14.574 C57.028,14.993 57.211,15.553 57.156,16.115 L50.602,81.782 C50.5,82.805 49.64,83.584 48.612,83.584 Z M14.667,79.584 L46.801,79.584 L52.955,17.917 L8.864,17.917 L14.667,79.584 Z"></path>
                                <path d="M59.833,17.917 L2.167,17.917 C1.063,17.917 0.167,17.021 0.167,15.917 L0.167,7.917 C0.167,6.813 1.063,5.917 2.167,5.917 L5.418,5.917 L5.418,2.417 C5.418,1.313 6.314,0.417 7.418,0.417 L54.418,0.417 C55.522,0.417 56.418,1.313 56.418,2.417 L56.418,5.917 L59.833,5.917 C60.937,5.917 61.833,6.813 61.833,7.917 L61.833,15.917 C61.833,17.021 60.938,17.917 59.833,17.917 Z M4.167,13.917 L57.833,13.917 L57.833,9.917 L54.418,9.917 C53.314,9.917 52.418,9.021 52.418,7.917 L52.418,4.417 L9.418,4.417 L9.418,7.917 C9.418,9.021 8.522,9.917 7.418,9.917 L4.167,9.917 L4.167,13.917 L4.167,13.917 Z"></path>
                            </g>
                            <rect id="Rectangle-path" fill="#000000" fill-rule="nonzero" x="10.192" y="52.25" width="41.615" height="4"></rect>
                            <rect id="Rectangle-path" fill="#000000" fill-rule="nonzero" x="8.729" y="29.25" width="44.375" height="4"></rect>
                        </g>
                        <g id="Shape" transform="translate(2.000000, 26.000000)" fill-rule="nonzero" fill="#000000">
                            <polygon points="52.584 29.457 5.084 29.457 2 2.958 55.308 2.958"></polygon>
                            <path d="M52.584,31.457 L5.084,31.457 C4.069,31.457 3.215,30.696 3.097,29.688 L0.013,3.188 C-0.053,2.621 0.127,2.053 0.506,1.626 C0.885,1.199 1.429,0.956 2,0.956 L55.308,0.956 C55.874,0.956 56.413,1.196 56.792,1.616 C57.172,2.036 57.355,2.597 57.297,3.16 L54.573,29.659 C54.469,30.682 53.609,31.457 52.584,31.457 Z M6.865,27.457 L50.78,27.457 L53.093,4.957 L4.246,4.957 L6.865,27.457 Z"></path>
                        </g>
                    </g>
                </g>
            </g>
        </g>
    </g>
</svg>